Circus World (1964) BRRip.720p.x264


In the early years of the 20th century, Matt Masters takes his rambling Wild West Show to Europe. His decision is prompted by his desire to find Lili Alfredo...



Circus World (1964)
Directed: Henry Hathaway
Produced: Michal Waszynski,Samuel Bronston
Written: Ben Hecht,Julian Halevy,James Edward Grant
Music: Dimitri Tiomkin
Starring : John Wayne,Claudia Cardinale,Rita Hayworth,Lloyd Nolan



 
http://s15.postimage.org/5bmrk1897/image.jpg 
http://s15.postimage.org/sgx661de3/image.jpg 
http://s15.postimage.org/6p9t1li4r/image.jpg




Circus World (1964) BRRip.720p.x264Circus World (1964) BRRip.720p.x264.mkv
Format : Matroska
Format version : Version 2
File size : 2.08 GiB
Duration : 2h 22mn
Overall bit rate mode : Variable
Overall bit rate : 2 083 Kbps
Encoded date : UTC 2012-05-09 22:51:47
Writing application : mkvmerge v5.2.1 ('A Far Off Place') built on Jan 2 2012 23:21:10
Writing library : libebml v1.2.3 + libmatroska v1.3.0

Video
ID : 1
Format : AVC
Format/Info : Advanced Video Codec
Format profile : High@L4.1
Format settings, CABAC : Yes
Format settings, ReFrames : 4 frames
Format settings, GOP : M=1, N=23
Muxing mode : Header stripping
Codec ID : V_MPEG4/ISO/AVC
Duration : 2h 22mn
Bit rate mode : Variable
Bit rate : 1 826 Kbps
Maximum bit rate : 10 000 Kbps
Width : 1 280 pixels
Height : 576 pixels
Display aspect ratio : 2.222
Frame rate : 24.000 fps
Color space : YUV
Chroma subsampling : 4:2:0
Bit depth : 8 bits
Scan type : Progressive
Bits/(Pixel*Frame) : 0.103
Stream size : 1.78 GiB (86%)
Writing library : x264 core 120 r2164 da19765



Audio
ID : 2
Format : AC-3
Format/Info : Audio Coding 3
Mode extension : CM (complete main)
Format settings, Endianness : Big
Muxing mode : Header stripping
Codec ID : A_AC3
Duration : 2h 22mn
Bit rate mode : Constant
Bit rate : 256 Kbps
Channel(s) : 2 channels
Channel positions : Front: L R
Sampling rate : 48.0 KHz
Bit depth : 16 bits
Compression mode : Lossy
Stream size : 261 MiB (12%)
Language : English
Default : Yes
Forced : No


No Subs
source - BluRay 